<svg xmlns="http://www.w3.org/2000/svg" viewBox="0 0 205.67 205.33"><defs><style>.cls-1{fill:#f1a47f;}.cls-2{fill:#8ea391;}</style></defs><g id="Capa_2" data-name="Capa 2"><g id="Capa_1-2" data-name="Capa 1"><path class="cls-1" d="M92.79,138.92c-8.9-2.66-17.5-4.53-26.35-4.45-5.14,0-10.28.62-15.42,1.05-1.31.11-2.39.51-3.58-.74-12.73-13.3-27.22-25-37-41a68,68,0,0,1-10-44.33c.88-8,2.09-15.8,5.86-23,8.57-16.44,23-24,40.61-26a84.14,84.14,0,0,1,18.9.19C79.18,2.15,89,10,97.58,19.74c2,2.21,1.29,3.06-1.64,3.76C75.67,28.34,58.81,37.68,50.31,58.21c-8.27,20-3.45,41.15,20.92,50.13,12.4,4.57,19.45,13.43,21.53,26.37A29.09,29.09,0,0,1,92.79,138.92Z"/><path class="cls-2" d="M139.58,92.91c-9.47-3.39-16.47.61-17.93,9.58a21.34,21.34,0,0,0,.29,8.94c1.68,6.17,1.48,12.54,2.49,18.77.15.94.57,2.13-.72,2.55-1.12.36-1.89-.55-2.42-1.36A25.87,25.87,0,0,1,117,119.8c-.55-5.68-2.61-9.19-8.85-9.71-3.47-.3-6.59-2.26-9.57-4.1-1.83-1.13-4.23-2.49-4.29-4.62-.16-6.43-4-5.14-8-4.61C67.73,99.18,53.94,87.31,55.83,70c1.06-9.68,5.92-17.92,13.39-24.4a32.17,32.17,0,0,1,15-7.43,93.53,93.53,0,0,0,17.12-5.25c10.16-4.12,20-1.09,29.62,2.15,18.72,6.28,30.31,19.82,35.59,38.17,3.56,12.39,1.64,24.78-7.09,35.29-9.27,11.14-21.08,11-32.72,7.71a2.58,2.58,0,0,1-2-1.93c-3.24-11.36.61-22.6,13.33-20.93A6.41,6.41,0,0,0,139.58,92.91ZM101.25,86c3.76.44,7.52.92,11.29,1.3a6.46,6.46,0,0,0,5.43-2c6.75-6.76,10.9-7.58,19.74-4,3.38,1.36,6.61,3.26,10.29,3.67,4.29.48,7.75-.86,9.52-5.21,3.21-7.89.36-13.38-8.12-14.86-2.59-.45-3.53-.91-3.18-3.84.79-6.7-2.06-10-8.75-10.57a31.1,31.1,0,0,0-7.95.28c-1.85.34-2.78.29-4.11-1.35-6.86-8.51-16.72-9.6-25.37-2.86-1.72,1.34-3.28,1.08-5.09,1-6.57-.23-11.53,3.18-15.29,8-2.18,2.8-2.73,6.85.21,9.67,3.68,3.51,8.5,3.87,14.13,3.92-1.92-2.26-3.8-1.77-5.27-2.4-1.68-.72-3.52-1.11-5.11-2a5.8,5.8,0,0,1-1.91-8.87c2.69-3.7,9.37-6.08,13.88-4.93,3.5.89,5.57,3.19,5.27,6.77-.51,6,2.11,11.5,1.88,17.62a3.36,3.36,0,0,0,2.14-4c-.79-6.07-1.48-12.18-2.77-18.16-.94-4.41.24-7.6,4.66-8.46,4.86-1,9.64-.45,13.76,2.76,4.46,3.48,4.84,6.54,1.42,11-1.33,1.74-3.28,3.07-4.34,6.32A17.62,17.62,0,0,0,125.09,58c3.4-5.57,7.9-7.06,14.17-4.84,3.93,1.39,5.11,4.09,5.09,8.09s-3,6.56-5.25,9.76c2.51.1,3.7-1.77,5.41-2.1,3.14-.6,6.41-2.79,9.49-.13,2.74,2.36,2.67,5.55,1.82,8.76-1.24,4.67-5,6.43-10.27,4.54-4.22-1.52-8.3-3.5-12.75-4.23-6.08-1-12.06-1.38-16,4.92-1.28,2.06-3.4,1.7-5.38,1.79C108.1,84.69,104.62,83.58,101.25,86ZM82,76.4c-5.1.57-7.26-5.13-13.09-4.52,3.38,2.64,4.11,5.71,4.44,9.34.53,5.74,5.64,8.4,11,6.09-1.15-.35-2.09-.61-3-.91-3.19-1.07-6-2.75-5.62-6.57.36-4,3.9-.67,5.5-2A9,9,0,0,0,82,76.4Z"/><path class="cls-1" d="M107.06,21.15c4.91-7,11.56-10.34,18.28-13.48,13.1-6.13,26.7-8.83,41.14-5.54,19.44,4.43,30.49,17.53,36,35.65a68.91,68.91,0,0,1,.18,40.76c-6.34,20.64-20.53,34.15-40.69,41.79,2.55-3.6,5.33-7,7.63-10.8,10.88-17.76,8.35-44.32-6.15-60.86a80.74,80.74,0,0,0-46.64-26.78C113.91,21.33,110.88,21.42,107.06,21.15Z"/><path class="cls-2" d="M82.06,160.45c4.69,5.94,9.19,10.86,12.55,16.61.82,1.41,1.91,2.9,1,4.64-1.1,2.06-3.18,1.64-4.92,1.48C70.76,181.25,60.2,173.32,55.33,151c-.85-3.9.49-5.75,4.44-6.64,17.58-3.93,34.54,4.39,42,20.8a119.7,119.7,0,0,1,6.33,18.71c2-6.73,4-13.46,5.89-20.2,5.56-19.5,19.24-29.53,38.49-33a68.39,68.39,0,0,1,14.92-.9c3,.11,5.59,1.07,5,4.64-2.82,16.21-7.63,31.42-21.87,41.67-7.93,5.71-17,7.3-26.46,7.36-2.84,0-3.37-.9-2.08-3.66a49.17,49.17,0,0,1,18.28-20.62,18.76,18.76,0,0,0,3.8-3.06c-14.13,4.47-24.48,13-29.2,27.55-1.86,5.75-2,11.79-3,17.69-.31,1.89-.56,3.81-2.87,4.05-2.62.28-2.81-2.13-3.16-3.71a66.88,66.88,0,0,1-1.76-11.3c-.63-13.9-8-23.16-19.72-29.58A9,9,0,0,0,82.06,160.45Zm-.61-1-.35.3c.11.11.2.31.31.32s.24-.18.35-.27Z"/></g></g></svg>